<?xml version="1.0" encoding="utf-8"?>
<!-- Generator: Adobe Illustrator 16.0.0, SVG Export Plug-In . SVG Version: 6.00 Build 0)  -->
<!DOCTYPE svg PUBLIC "-//W3C//DTD SVG 1.1//EN" "http://www.w3.org/Graphics/SVG/1.1/DTD/svg11.dtd">
<svg version="1.1" id="Layer_1" xmlns="http://www.w3.org/2000/svg" xmlns:xlink="http://www.w3.org/1999/xlink" x="0px" y="0px"
	 width="50px" height="60px" viewBox="0 0 50 60" style="enable-background:new 0 0 50 60;" xml:space="preserve">
<style type="text/css">
<![CDATA[
	.st0{fill:#FAA750;}
]]>
</style>
<g>
	<path class="st0" d="M43.5,1h-37C3.3,1,0.7,3.6,0.7,6.8v46.3c0,3.2,2.6,5.8,5.8,5.8h37c3.2,0,5.8-2.6,5.8-5.8V6.8
		C49.3,3.6,46.7,1,43.5,1L43.5,1z M47,53.1c0,1.9-1.6,3.5-3.5,3.5h-37C4.6,56.5,3,55,3,53.1V6.8c0-1.9,1.6-3.5,3.5-3.5h37
		c1.9,0,3.5,1.6,3.5,3.5V53.1z M47,53.1"/>
	<path class="st0" d="M37.2,26.3H12.8c-0.6,0-1.1,0.5-1.1,1.1c0,0.6,0.5,1.1,1.1,1.1h24.4c0.6,0,1.1-0.5,1.1-1.1
		C38.3,26.8,37.8,26.3,37.2,26.3L37.2,26.3z M37.2,26.3"/>
	<path class="st0" d="M37.2,31.1H12.8c-0.6,0-1.1,0.5-1.1,1.1c0,0.6,0.5,1.1,1.1,1.1h24.4c0.6,0,1.1-0.5,1.1-1.1
		C38.3,31.6,37.8,31.1,37.2,31.1L37.2,31.1z M37.2,31.1"/>
	<path class="st0" d="M37.2,36H12.8c-0.6,0-1.1,0.5-1.1,1.1c0,0.6,0.5,1.1,1.1,1.1h24.4c0.6,0,1.1-0.5,1.1-1.1
		C38.3,36.5,37.8,36,37.2,36L37.2,36z M37.2,36"/>
	<path class="st0" d="M37.2,40.8H25c-0.6,0-1.1,0.5-1.1,1.1c0,0.6,0.5,1.1,1.1,1.1h12.2c0.6,0,1.1-0.5,1.1-1.1
		C38.3,41.3,37.8,40.8,37.2,40.8L37.2,40.8z M37.2,40.8"/>
	<path class="st0" d="M37.2,50.4h-8.5c-0.6,0-1.1,0.5-1.1,1.1c0,0.6,0.5,1.1,1.1,1.1h8.5c0.6,0,1.1-0.5,1.1-1.1
		C38.3,50.9,37.8,50.4,37.2,50.4L37.2,50.4z M37.2,50.4"/>
	<path class="st0" d="M26.2,21.6c0-2-2.3-4.7-5.4-5.5c1.3-0.9,2.2-2.6,2.2-4.2c0-2.2-1.8-4-4-4c-2.2,0-4,1.8-4,4
		c0,1.6,0.9,3.3,2.2,4.2c-3.1,0.8-5.4,3.5-5.4,5.5C11.7,24,26.2,24,26.2,21.6L26.2,21.6z M18.6,17.3L18.6,17.3L18,16.5
		c0.3,0.1,0.6,0.2,1,0.2c0.3,0,0.7-0.1,1-0.2l-0.7,0.8h0l1.7,4.1l-2,2l-2-2L18.6,17.3z M18.6,17.3"/>
</g>
</svg>
