<?xml version="1.0" encoding="utf-8"?>
<!-- Generator: Adobe Illustrator 16.0.0, SVG Export Plug-In . SVG Version: 6.00 Build 0)  -->
<!DOCTYPE svg PUBLIC "-//W3C//DTD SVG 1.1//EN" "http://www.w3.org/Graphics/SVG/1.1/DTD/svg11.dtd">
<svg version="1.1" xmlns="http://www.w3.org/2000/svg" xmlns:xlink="http://www.w3.org/1999/xlink" x="0px" y="0px" width="50px"
	 height="60px" viewBox="0 0 50 60" style="enable-background:new 0 0 50 60;" xml:space="preserve">
<style type="text/css">
<![CDATA[
	.st0{fill:#FAA750;}
]]>
</style>
<g id="Layer_1">
	<path class="st0" d="M43.5,1h-37C3.3,1,0.7,3.6,0.7,6.8v46.3c0,3.2,2.6,5.8,5.8,5.8h37c3.2,0,5.8-2.6,5.8-5.8V6.8
		C49.3,3.6,46.7,1,43.5,1L43.5,1z M47,53.1c0,1.9-1.6,3.5-3.5,3.5h-37C4.6,56.5,3,55,3,53.1V6.8c0-1.9,1.6-3.5,3.5-3.5h37
		c1.9,0,3.5,1.6,3.5,3.5V53.1z M47,53.1"/>
	<path class="st0" d="M-12.8,26.3h-24.4c-0.6,0-1.1,0.5-1.1,1.1c0,0.6,0.5,1.1,1.1,1.1h24.4c0.6,0,1.1-0.5,1.1-1.1
		C-11.7,26.8-12.2,26.3-12.8,26.3L-12.8,26.3z M-12.8,26.3"/>
	<path class="st0" d="M-12.8,31.1h-24.4c-0.6,0-1.1,0.5-1.1,1.1c0,0.6,0.5,1.1,1.1,1.1h24.4c0.6,0,1.1-0.5,1.1-1.1
		C-11.7,31.6-12.2,31.1-12.8,31.1L-12.8,31.1z M-12.8,31.1"/>
	<path class="st0" d="M-12.8,36h-24.4c-0.6,0-1.1,0.5-1.1,1.1c0,0.6,0.5,1.1,1.1,1.1h24.4c0.6,0,1.1-0.5,1.1-1.1
		C-11.7,36.5-12.2,36-12.8,36L-12.8,36z M-12.8,36"/>
	<path class="st0" d="M-12.8,40.8H-25c-0.6,0-1.1,0.5-1.1,1.1c0,0.6,0.5,1.1,1.1,1.1h12.2c0.6,0,1.1-0.5,1.1-1.1
		C-11.7,41.3-12.2,40.8-12.8,40.8L-12.8,40.8z M-12.8,40.8"/>
	<path class="st0" d="M-12.8,50.4h-8.5c-0.6,0-1.1,0.5-1.1,1.1c0,0.6,0.5,1.1,1.1,1.1h8.5c0.6,0,1.1-0.5,1.1-1.1
		C-11.7,50.9-12.2,50.4-12.8,50.4L-12.8,50.4z M-12.8,50.4"/>
	<path class="st0" d="M-23.8,21.6c0-2-2.3-4.7-5.4-5.5c1.3-0.9,2.2-2.6,2.2-4.2c0-2.2-1.8-4-4-4c-2.2,0-4,1.8-4,4
		c0,1.6,0.9,3.3,2.2,4.2c-3.1,0.8-5.4,3.5-5.4,5.5C-38.3,24-23.8,24-23.8,21.6L-23.8,21.6z M-31.4,17.3L-31.4,17.3l-0.7-0.8
		c0.3,0.1,0.6,0.2,1,0.2c0.3,0,0.7-0.1,1-0.2l-0.7,0.8h0l1.7,4.1l-2,2l-2-2L-31.4,17.3z M-31.4,17.3"/>
</g>
<g id="Layer_2">
	<g>
		<path class="st0" d="M27.6,35.3l4.1-3.7l6.7-6.1l-6.7-6.1l-6.9-6.2L18,19.3l-6.7,6.1l6.7,6.1l4.1,3.7l2.2-2c0.3-0.3,0.9-0.3,1.2,0
			L27.6,35.3z M9.3,24.8l7.4-6.7l7.5-6.8v0l0,0h0l0,0l0,0l0,0h0l0,0l0,0h0v0h0v0h0l0,0l0,0c0.1,0,0.2-0.1,0.3-0.1h0.2
			c0.1,0,0.2,0.1,0.3,0.1l0,0l0,0h0v0h0l0,0h0l0,0l0,0h0l0,0l0,0l0,0h0l0,0l0,0v0l7.5,6.8l7.4,6.7c0.2,0.2,0.3,0.4,0.3,0.7v22.1
			c0,0.5-0.4,0.9-0.9,0.9H9.9l0,0H9.8l0,0h0l0,0h0l0,0h0l0,0C9.3,48.2,9,47.9,9,47.5V25.5C9,25.2,9.1,24.9,9.3,24.8L9.3,24.8z
			 M10.8,27.5v18l6-5.4l3.9-3.6l-3.9-3.6L10.8,27.5z M38.9,45.5v-18l-6,5.4l-4,3.6l4,3.6L38.9,45.5z M31.7,41.4l-6.9-6.2L18,41.4
			l-5.8,5.2h25.3L31.7,41.4z M31.7,41.4"/>
	</g>
</g>
</svg>
