<?xml version="1.0" encoding="utf-8"?>
<!-- Generator: Adobe Illustrator 16.0.0, SVG Export Plug-In . SVG Version: 6.00 Build 0)  -->
<!DOCTYPE svg PUBLIC "-//W3C//DTD SVG 1.1//EN" "http://www.w3.org/Graphics/SVG/1.1/DTD/svg11.dtd">
<svg version="1.1" xmlns="http://www.w3.org/2000/svg" xmlns:xlink="http://www.w3.org/1999/xlink" x="0px" y="0px" width="50px"
	 height="60px" viewBox="0 0 50 60" style="enable-background:new 0 0 50 60;" xml:space="preserve">
<style type="text/css">
<![CDATA[
	.st0{fill:#FAA750;}
	.st1{clip-path:url(#SVGID_2_);fill:#FAA750;}
]]>
</style>
<g id="Layer_1">
	<path class="st0" d="M43.5,1h-37C3.3,1,0.7,3.6,0.7,6.8v46.3c0,3.2,2.6,5.8,5.8,5.8h37c3.2,0,5.8-2.6,5.8-5.8V6.8
		C49.3,3.6,46.7,1,43.5,1L43.5,1z M47,53.1c0,1.9-1.6,3.5-3.5,3.5h-37C4.6,56.5,3,55,3,53.1V6.8c0-1.9,1.6-3.5,3.5-3.5h37
		c1.9,0,3.5,1.6,3.5,3.5V53.1z M47,53.1"/>
	<path class="st0" d="M-12.8,26.3h-24.4c-0.6,0-1.1,0.5-1.1,1.1c0,0.6,0.5,1.1,1.1,1.1h24.4c0.6,0,1.1-0.5,1.1-1.1
		C-11.7,26.8-12.2,26.3-12.8,26.3L-12.8,26.3z M-12.8,26.3"/>
	<path class="st0" d="M-12.8,31.1h-24.4c-0.6,0-1.1,0.5-1.1,1.1c0,0.6,0.5,1.1,1.1,1.1h24.4c0.6,0,1.1-0.5,1.1-1.1
		C-11.7,31.6-12.2,31.1-12.8,31.1L-12.8,31.1z M-12.8,31.1"/>
	<path class="st0" d="M-12.8,36h-24.4c-0.6,0-1.1,0.5-1.1,1.1c0,0.6,0.5,1.1,1.1,1.1h24.4c0.6,0,1.1-0.5,1.1-1.1
		C-11.7,36.5-12.2,36-12.8,36L-12.8,36z M-12.8,36"/>
	<path class="st0" d="M-12.8,40.8H-25c-0.6,0-1.1,0.5-1.1,1.1c0,0.6,0.5,1.1,1.1,1.1h12.2c0.6,0,1.1-0.5,1.1-1.1
		C-11.7,41.3-12.2,40.8-12.8,40.8L-12.8,40.8z M-12.8,40.8"/>
	<path class="st0" d="M-12.8,50.4h-8.5c-0.6,0-1.1,0.5-1.1,1.1c0,0.6,0.5,1.1,1.1,1.1h8.5c0.6,0,1.1-0.5,1.1-1.1
		C-11.7,50.9-12.2,50.4-12.8,50.4L-12.8,50.4z M-12.8,50.4"/>
	<path class="st0" d="M-23.8,21.6c0-2-2.3-4.7-5.4-5.5c1.3-0.9,2.2-2.6,2.2-4.2c0-2.2-1.8-4-4-4c-2.2,0-4,1.8-4,4
		c0,1.6,0.9,3.3,2.2,4.2c-3.1,0.8-5.4,3.5-5.4,5.5C-38.3,24-23.8,24-23.8,21.6L-23.8,21.6z M-31.4,17.3L-31.4,17.3l-0.7-0.8
		c0.3,0.1,0.6,0.2,1,0.2c0.3,0,0.7-0.1,1-0.2l-0.7,0.8h0l1.7,4.1l-2,2l-2-2L-31.4,17.3z M-31.4,17.3"/>
</g>
<g id="Layer_2">
	<g>
		<path class="st0" d="M78.6,35.3l4.1-3.7l6.7-6.1l-6.7-6.1l-6.9-6.2L69,19.3l-6.7,6.1l6.7,6.1l4.1,3.7l2.2-2c0.3-0.3,0.9-0.3,1.2,0
			L78.6,35.3z M60.3,24.8l7.4-6.7l7.5-6.8v0l0,0h0l0,0l0,0l0,0h0l0,0l0,0h0v0h0v0h0l0,0l0,0c0.1,0,0.2-0.1,0.3-0.1h0.2
			c0.1,0,0.2,0.1,0.3,0.1l0,0l0,0h0v0h0l0,0h0l0,0l0,0h0l0,0l0,0l0,0h0l0,0l0,0v0l7.5,6.8l7.4,6.7c0.2,0.2,0.3,0.4,0.3,0.7v22.1
			c0,0.5-0.4,0.9-0.9,0.9H60.9l0,0h-0.1l0,0h0l0,0h0l0,0h0l0,0c-0.3-0.1-0.6-0.5-0.6-0.8V25.5C60,25.2,60.1,24.9,60.3,24.8
			L60.3,24.8z M61.8,27.5v18l6-5.4l3.9-3.6l-3.9-3.6L61.8,27.5z M89.9,45.5v-18l-6,5.4l-4,3.6l4,3.6L89.9,45.5z M82.7,41.4l-6.9-6.2
			L69,41.4l-5.8,5.2h25.3L82.7,41.4z M82.7,41.4"/>
	</g>
</g>
<g id="Layer_3">
	<g>
		<defs>
			<polygon id="SVGID_1_" points="6.4,12.3 43.6,12.3 43,47.1 6.4,47.1 			"/>
		</defs>
		<clipPath id="SVGID_2_">
			<use xlink:href="#SVGID_1_"  style="overflow:visible;"/>
		</clipPath>
		<path class="st1" d="M41.2,16.4h-8v-1.5c0-0.4-0.3-0.8-0.8-0.8c-0.4,0-0.8,0.3-0.8,0.8v1.5h-8c-1.1,0-2.1,0.9-2.1,2.1v2.7
			l-1.1-0.4c-0.3-0.1-2.8-1-5.1-1.1l-0.3,0.6h0l0.9,6.8l-1,1.8l-1-1.8l0.9-6.8h0l-0.3-0.6c-2.4,0.1-5,1.1-5.1,1.1c0,0-0.1,0-0.1,0.1
			C9.1,20.9,9,21,9,21c-0.1,0-0.1,0.1-0.2,0.2c-0.1,0.1-0.1,0.1-0.1,0.2c0,0.1-0.1,0.2-0.1,0.2c0,0,0,0.1-0.1,0.1L6.4,31
			c-0.2,0.7,0.3,1.4,1,1.5c0.1,0,0.2,0,0.3,0c0.6,0,1.1-0.4,1.3-1l1.9-8.6c0.1,0,0.3-0.1,0.4-0.1v8.8l-1,12.8
			c-0.1,0.9,0.6,1.6,1.4,1.7c0,0,0.1,0,0.1,0c0.8,0,1.5-0.6,1.5-1.4l0.9-11.6c0.2,0.1,0.4,0.1,0.6,0.1c0.2,0,0.4,0,0.6-0.1l0.9,11.6
			c0.1,0.8,0.7,1.4,1.5,1.4c0,0,0.1,0,0.1,0c0.9-0.1,1.5-0.8,1.4-1.7l-1-12.8v-8.8c0.7,0.2,1.1,0.3,1.1,0.3c0,0,0,0,0,0c0,0,0,0,0,0
			l1.9,0.6v7c0,1.1,0.9,2.1,2.1,2.1h3.8l-3.3,12.3c-0.1,0.4,0.1,0.8,0.5,0.9c0.1,0,0.1,0,0.2,0c0.3,0,0.7-0.2,0.8-0.6L29,32.9h2.6v9
			c0,0.4,0.3,0.8,0.8,0.8c0.4,0,0.8-0.3,0.8-0.8v-9h2.6l3.4,12.7c0.1,0.3,0.4,0.6,0.7,0.6c0.1,0,0.1,0,0.2,0
			c0.4-0.1,0.7-0.5,0.6-0.9l-3.3-12.3h3.8c1.1,0,2.1-0.9,2.1-2.1V18.4C43.3,17.3,42.3,16.4,41.2,16.4L41.2,16.4z M42.2,30.8
			c0,0.6-0.5,1-1,1H23.6c-0.6,0-1-0.5-1-1v-6.6l3.3,1.1c0.1,0,0.3,0.1,0.4,0.1c0.5,0,1-0.3,1.2-0.9c0-0.1,0-0.2,0-0.3l7.8-3.6
			c0.1-0.1,0.2-0.2,0.1-0.3c-0.1-0.1-0.2-0.2-0.3-0.1l-7.6,3.5c-0.1-0.4-0.4-0.7-0.8-0.8l-4.1-1.4v-3.1c0-0.6,0.5-1,1-1h17.6
			c0.6,0,1,0.5,1,1L42.2,30.8L42.2,30.8z M42.2,30.8"/>
	</g>
	<path class="st0" d="M14.9,19.4c1.8,0,3.3-2.1,3.3-3.9c0-1.8-1.5-3.3-3.3-3.3c-1.8,0-3.3,1.5-3.3,3.3
		C11.7,17.3,13.1,19.4,14.9,19.4L14.9,19.4z M14.9,19.4"/>
	<path class="st0" d="M34,25.6l0.5-0.3L34,24.4l-0.5,0.3c-0.2-0.3-0.5-0.5-0.8-0.6l0.1-0.6l-1-0.2l-0.1,0.6c-0.3,0-0.7,0-1,0.2
		l-0.3-0.5l-0.8,0.5l0.3,0.5c-0.3,0.2-0.5,0.5-0.6,0.8l-0.6-0.1l-0.2,1l0.6,0.1c0,0.3,0,0.7,0.2,1l-0.5,0.3l0.5,0.8l0.5-0.3
		c0.2,0.3,0.5,0.5,0.8,0.6l-0.1,0.6l1,0.2l0.1-0.6c0.3,0,0.7,0,1-0.2l0.3,0.5l0.8-0.5l-0.3-0.5c0.3-0.2,0.5-0.5,0.6-0.8l0.6,0.1
		l0.2-1l-0.6-0.1C34.2,26.2,34.1,25.9,34,25.6L34,25.6z M32.5,28c-0.8,0.5-1.9,0.3-2.4-0.6c-0.5-0.8-0.3-1.9,0.6-2.4
		c0.8-0.5,1.9-0.3,2.5,0.6C33.6,26.4,33.3,27.5,32.5,28L32.5,28z M32.5,28"/>
	<path class="st0" d="M39.3,24l-0.5,0.2c-0.1-0.2-0.3-0.5-0.5-0.6l0.2-0.4l-0.7-0.3l-0.2,0.4c-0.3-0.1-0.6-0.1-0.8-0.1l-0.2-0.5
		l-0.7,0.3l0.2,0.5c-0.2,0.1-0.5,0.3-0.6,0.6l-0.4-0.2l-0.3,0.7l0.4,0.2c-0.1,0.3-0.1,0.5-0.1,0.8l-0.5,0.2l0.3,0.7l0.5-0.2
		c0.1,0.2,0.3,0.5,0.5,0.6l-0.2,0.4l0.7,0.3l0.2-0.4c0.3,0.1,0.5,0.1,0.8,0.1l0.2,0.5l0.7-0.3L38.1,27c0.3-0.1,0.5-0.3,0.6-0.5
		l0.4,0.2l0.3-0.7L39,25.7c0.1-0.3,0.1-0.5,0.1-0.8l0.5-0.2L39.3,24z M37.5,26.5c-0.7,0.3-1.5-0.1-1.8-0.9c-0.2-0.7,0.1-1.5,0.9-1.8
		c0.7-0.3,1.5,0.1,1.8,0.9C38.6,25.5,38.2,26.3,37.5,26.5L37.5,26.5z M37.5,26.5"/>
</g>
</svg>
